<svg xmlns="http://www.w3.org/2000/svg" width="36" height="44" viewBox="0 0 36 44" fill="none">
  <path d="M18 2C9.16 2 2 9.16 2 18c0 11.5 16 24 16 24s16-12.5 16-24C34 9.16 26.84 2 18 2Z" fill="#C2541C" stroke="#F8F6F1" stroke-width="2"/>
  <path d="M12 14h10v6a5 5 0 0 1-10 0v-6Z" fill="#F8F6F1"/>
  <path d="M22 16h2a2 2 0 0 1 0 4h-2" stroke="#F8F6F1" stroke-width="1.6" fill="none"/>
  <path d="M14 11c0 1 1 1 1 2M17 11c0 1 1 1 1 2" stroke="#F8F6F1" stroke-width="1.4" stroke-linecap="round"/>
</svg>
